<svg width="160" height="160" viewBox="0 0 160 160" fill="none" xmlns="http://www.w3.org/2000/svg">
<g clip-path="url(#clip0_2_12)">
<path d="M0 0C52.8 0 105.6 0 160 0C160 52.8 160 105.6 160 160C107.2 160 54.4 160 0 160C0 107.2 0 54.4 0 0Z" fill="#FAFBFB"/>
<path d="M89.295 15.8197C89.4109 15.8292 89.5268 15.8386 89.6462 15.8483C89.7568 15.8577 89.8673 15.8671 89.9813 15.8767C90.1232 15.8887 90.1231 15.8887 90.2679 15.9009C90.8046 15.9559 91.3396 16.0268 91.875 16.0937C91.875 20.1156 91.875 24.1375 91.875 28.2812C88.7345 28.116 88.7345 28.116 87.6844 28.0001C87.0481 27.9415 86.4113 27.9403 85.7727 27.937C85.5545 27.9354 85.5545 27.9354 85.3319 27.9337C73.1016 27.8621 61.1632 31.2203 51.5625 39.0625C51.4706 39.1374 51.3787 39.2123 51.284 39.2894C48.5132 41.5616 45.7874 44.0332 43.5937 46.875C43.4475 47.0523 43.4475 47.0523 43.2983 47.2333C35.9822 56.1108 31.8946 67.7361 31.9787 79.2085C31.9824 79.7492 31.9819 80.2899 31.9809 80.8307C31.9842 83.4801 32.1177 86.1038 32.6172 88.7109C32.6436 88.8511 32.6701 88.9913 32.6973 89.1357C33.5338 93.6941 33.5338 93.6941 35.3186 97.9307C35.5106 98.3789 35.5072 98.7292 35.5063 99.2165C35.5068 99.408 35.5072 99.5995 35.5076 99.7968C35.5065 100.009 35.5054 100.22 35.5042 100.432C35.5041 100.655 35.5042 100.879 35.5044 101.102C35.5045 101.708 35.5026 102.314 35.5004 102.92C35.4985 103.553 35.4983 104.186 35.4979 104.82C35.497 106.019 35.4944 107.218 35.4913 108.417C35.4878 109.782 35.486 111.147 35.4845 112.513C35.4812 115.321 35.4757 118.129 35.4687 120.938C35.2962 120.791 35.124 120.645 34.9519 120.499C34.8559 120.417 34.76 120.336 34.6611 120.252C34.2198 119.863 33.817 119.445 33.418 119.014C33.3316 118.92 33.2452 118.827 33.1562 118.731C32.1282 117.601 31.2168 116.386 30.3125 115.156C30.2083 115.016 30.2083 115.016 30.1021 114.873C28.0855 112.156 26.3976 109.252 24.8437 106.25C24.7443 106.058 24.7443 106.058 24.6429 105.862C23.0592 102.76 21.9199 99.4295 20.9375 96.0938C20.8888 95.9324 20.8401 95.7711 20.79 95.6049C20.3962 94.2722 20.0924 92.9373 19.834 91.5723C19.814 91.4681 19.7941 91.364 19.7736 91.2566C19.1389 87.9303 18.7357 84.6111 18.7128 81.2213C18.7112 81.0328 18.7097 80.8443 18.7081 80.6501C18.7043 80.046 18.7023 79.442 18.7012 78.8379C18.701 78.735 18.7008 78.6321 18.7006 78.5261C18.6958 75.3655 18.7946 72.3298 19.375 69.2188C19.4343 68.8697 19.4933 68.5206 19.552 68.1714C21.5616 56.6569 26.9692 45.778 34.6875 37.0312C34.7875 36.9173 34.8875 36.8034 34.9905 36.6861C35.8861 35.6771 36.8207 34.7127 37.7743 33.7592C38.0268 33.5064 38.2779 33.2524 38.529 32.9984C39.5437 31.9783 40.5904 31.0507 41.7187 30.1562C41.8812 30.0196 42.0429 29.8821 42.2034 29.743C43.4877 28.6396 44.8549 27.6757 46.25 26.7187C46.3984 26.616 46.3984 26.616 46.5498 26.5112C54.3529 21.116 63.0826 17.9644 72.3437 16.25C72.5017 16.22 72.6597 16.19 72.8225 16.159C73.7057 15.9932 74.5844 15.861 75.4785 15.7715C75.6062 15.7586 75.734 15.7458 75.8656 15.7325C80.3601 15.2953 84.8033 15.4519 89.295 15.8197Z" fill="#36ADE7"/>
<path d="M128.437 36.25C128.561 36.3736 128.684 36.4973 128.811 36.6247C129.034 36.847 129.258 37.0686 129.485 37.2864C130.305 38.0779 131.011 38.9518 131.719 39.8437C131.834 39.9857 131.949 40.1277 132.068 40.274C134.127 42.8682 135.906 45.6944 137.5 48.5937C137.597 48.7683 137.597 48.7683 137.696 48.9463C141.28 55.4209 143.606 62.6251 144.717 69.9316C144.741 70.0902 144.765 70.2487 144.79 70.412C145.221 73.4065 145.372 76.3814 145.361 79.4043C145.361 79.5792 145.361 79.7541 145.36 79.9343C145.352 82.5367 145.288 85.086 144.844 87.6562C144.811 87.8484 144.778 88.0405 144.745 88.2385C142.677 100.202 137.331 111.114 129.219 120.156C129.14 120.244 129.062 120.331 128.981 120.422C127.433 122.139 125.834 123.824 124.062 125.312C123.917 125.438 123.772 125.564 123.623 125.694C117.299 131.162 109.924 135.133 102.031 137.812C101.795 137.893 101.795 137.893 101.553 137.975C98.7549 138.918 95.9473 139.598 93.0371 140.098C92.863 140.128 92.6889 140.158 92.5095 140.19C89.0239 140.763 85.5658 141.01 82.0347 140.981C81.4185 140.976 80.8024 140.975 80.1862 140.974C79.786 140.973 79.3858 140.971 78.9856 140.969C78.8055 140.969 78.6255 140.968 78.44 140.967C74.9999 140.937 74.9999 140.937 74.375 140.625C74.375 136.191 74.375 131.756 74.375 127.187C77.3141 127.42 77.3141 127.42 80.3125 127.656C89.6163 127.88 98.3238 125.815 106.562 121.562C106.68 121.502 106.797 121.441 106.918 121.379C109.516 120.017 111.962 118.274 114.219 116.406C114.3 116.34 114.381 116.274 114.464 116.206C117.615 113.638 120.541 110.765 122.969 107.5C123.032 107.416 123.095 107.332 123.16 107.246C128.793 99.7421 132.827 89.9903 132.839 80.4944C132.839 80.3381 132.84 80.1819 132.84 80.0209C132.841 79.6918 132.841 79.3628 132.841 79.0337C132.842 78.5418 132.845 78.0499 132.848 77.558C132.856 74.589 132.605 71.6987 132.07 68.7793C132.05 68.6665 132.03 68.5536 132.009 68.4373C131.453 65.3606 130.678 62.377 129.707 59.4043C129.659 59.2566 129.611 59.109 129.562 58.9569C129.385 58.4363 129.385 58.4363 129.141 57.9562C128.215 55.9359 128.315 53.8924 128.342 51.7085C128.348 51.1634 128.349 50.6184 128.35 50.0732C128.353 49.0451 128.361 48.0171 128.37 46.989C128.381 45.8168 128.386 44.6446 128.39 43.4724C128.4 41.0649 128.417 38.6575 128.437 36.25Z" fill="#F42B30"/>
<path d="M85.9375 44.5312C85.9375 48.6562 85.9375 52.7812 85.9375 57.0312C84.0812 57.1859 84.0812 57.1859 82.1875 57.3438C75.952 58.5562 70.6221 62.1157 67.0215 67.3535C64.463 71.2092 63.4155 75.5517 63.4128 80.1388C63.4121 80.3913 63.4113 80.6439 63.4104 80.8965C63.4083 81.5881 63.4072 82.2797 63.4062 82.9713C63.4049 83.718 63.4028 84.4647 63.4007 85.2115C63.3973 86.5044 63.3945 87.7974 63.392 89.0903C63.3885 90.9597 63.3841 92.8291 63.3795 94.6984C63.372 97.7315 63.3653 100.765 63.359 103.798C63.3528 106.744 63.3463 109.69 63.3394 112.636C63.339 112.817 63.3386 112.999 63.3381 113.186C63.336 114.097 63.3339 115.009 63.3317 115.92C63.3139 123.478 63.2972 131.036 63.2812 138.594C63.0566 138.545 62.8321 138.495 62.6075 138.446C62.4825 138.419 62.3574 138.391 62.2286 138.363C58.8891 137.591 52.6189 135.744 50.1562 133.281C50.1406 132.987 50.1361 132.692 50.1357 132.397C50.1351 132.204 50.1345 132.01 50.1339 131.811C50.134 131.594 50.1342 131.377 50.1343 131.159C50.1339 130.93 50.1334 130.702 50.1329 130.473C50.1316 129.841 50.1314 129.21 50.1312 128.578C50.131 127.898 50.1298 127.218 50.1287 126.537C50.1266 125.047 50.1257 123.557 50.125 122.067C50.1245 121.136 50.1239 120.204 50.1232 119.273C50.1213 116.692 50.1197 114.111 50.1191 111.53C50.1191 111.364 50.1191 111.199 50.119 111.028C50.119 110.863 50.119 110.697 50.1189 110.526C50.1189 110.19 50.1188 109.854 50.1187 109.518C50.1187 109.352 50.1186 109.185 50.1186 109.013C50.118 106.322 50.1153 103.63 50.1116 100.939C50.1079 98.1723 50.106 95.406 50.1058 92.6397C50.1056 91.0878 50.1048 89.536 50.1019 87.9841C50.0995 86.6604 50.0987 85.3367 50.1 84.013C50.1006 83.3391 50.1005 82.6652 50.0983 81.9913C50.0872 78.4248 50.1072 74.8246 51.0547 71.3574C51.0951 71.2041 51.1356 71.0508 51.1773 70.8929C52.6426 65.477 55.2221 60.3944 59.0637 56.2726C59.3448 55.97 59.6089 55.6591 59.873 55.3418C62.1907 52.7006 65.0924 50.6413 68.125 48.9062C68.232 48.8443 68.3391 48.7823 68.4493 48.7184C73.9188 45.5791 79.6886 44.5312 85.9375 44.5312Z" fill="#F42B30"/>
<path d="M103.906 18.75C104.599 18.8566 105.184 19.0183 105.833 19.2877C106.021 19.3654 106.209 19.443 106.402 19.523C106.602 19.607 106.802 19.6911 107.002 19.7754C107.104 19.8181 107.206 19.8607 107.311 19.9047C110.199 21.115 112.918 22.4816 115.625 24.0625C115.76 24.1263 115.894 24.19 116.033 24.2557C116.406 24.5313 116.406 24.5312 116.504 24.9262C116.504 25.0856 116.503 25.245 116.503 25.4092C116.505 25.5931 116.507 25.777 116.509 25.9665C116.505 26.271 116.505 26.271 116.502 26.5817C116.503 26.7988 116.504 27.0159 116.505 27.233C116.507 27.8311 116.505 28.4291 116.502 29.0271C116.499 29.6717 116.501 30.3162 116.502 30.9608C116.503 32.2246 116.501 33.4883 116.497 34.7521C116.493 36.2249 116.492 37.6976 116.492 39.1704C116.492 41.8003 116.488 44.4301 116.482 47.06C116.477 49.6088 116.473 52.1576 116.473 54.7065C116.473 54.8631 116.473 55.0198 116.473 55.1812C116.473 55.3377 116.473 55.4941 116.473 55.6552C116.473 55.9702 116.472 56.2852 116.472 56.6002C116.472 56.8332 116.472 56.8332 116.472 57.0709C116.472 59.5024 116.469 61.934 116.466 64.3655C116.465 65.2451 116.464 66.1247 116.463 67.0043C116.463 68.4015 116.461 69.7987 116.457 71.196C116.455 71.8339 116.454 72.4719 116.454 73.1098C116.454 73.6956 116.453 74.2814 116.45 74.8672C116.449 75.1758 116.45 75.4845 116.45 75.7931C116.438 77.8976 116.157 79.9437 115.674 81.9922C115.633 82.1657 115.592 82.3392 115.55 82.518C114.052 88.7049 110.916 93.9929 106.563 98.5938C106.357 98.8116 106.357 98.8116 106.148 99.0338C105.066 100.151 103.9 101.102 102.656 102.031C102.526 102.13 102.526 102.13 102.393 102.231C95.9846 107.078 88.6221 109.219 80.625 109.219C80.625 105.042 80.625 100.866 80.625 96.5625C81.8109 96.5109 82.9969 96.4594 84.2188 96.4062C85.1185 96.275 85.9915 96.1367 86.875 95.9375C87.1702 95.8725 87.1702 95.8725 87.4713 95.8063C91.0052 94.9477 94.6775 93.0522 97.1454 90.3406C97.3438 90.1562 97.3438 90.1562 97.6563 90.1562C97.6947 90.0672 97.7332 89.9782 97.7728 89.8865C98.0011 89.4726 98.2749 89.1873 98.6035 88.8477C102.385 84.7026 103.771 79.0285 103.775 73.5598C103.775 73.3224 103.776 73.085 103.777 72.8476C103.779 72.1995 103.78 71.5514 103.781 70.9032C103.783 70.2027 103.785 69.5022 103.787 68.8017C103.79 67.5894 103.793 66.3772 103.795 65.1649C103.799 63.4121 103.803 61.6594 103.808 59.9067C103.815 57.0627 103.822 54.2187 103.829 51.3747C103.835 48.6127 103.841 45.8507 103.848 43.0887C103.849 42.8332 103.849 42.8332 103.849 42.5725C103.852 41.7177 103.854 40.863 103.856 40.0083C103.874 32.9222 103.89 25.8361 103.906 18.75Z" fill="#36ADE7"/>
<path d="M61.7188 53.75C61.5179 54.198 61.317 54.5275 60.9375 54.8438C60.8344 54.8438 60.7313 54.8438 60.625 54.8438C60.5863 54.934 60.5477 55.0242 60.5078 55.1172C60.2864 55.5157 60.0193 55.784 59.6875 56.0938C59.5844 56.0422 59.4813 55.9906 59.375 55.9375C61.2516 53.75 61.2516 53.75 61.7188 53.75Z" fill="#EE393D"/>
<path d="M97.9688 89.5312C98.0719 89.5312 98.175 89.5312 98.2812 89.5312C98.0483 90.1243 97.6942 90.4079 97.1875 90.7812C97.0844 90.7297 96.9813 90.6781 96.875 90.625C97.0898 90.3906 97.0898 90.3906 97.3438 90.1562C97.4469 90.1562 97.55 90.1562 97.6562 90.1562C97.7594 89.95 97.8625 89.7438 97.9688 89.5312Z" fill="#4CB2E3"/>
</g>
<defs>
<clipPath id="clip0_2_12">
<rect width="160" height="160" fill="white"/>
</clipPath>
</defs>
</svg>
